<svg width="32" height="32" viewBox="0 0 32 32" fill="none" xmlns="http://www.w3.org/2000/svg">
<g clip-path="url(#clip0_27_679)">
<path d="M7.75849 20.7209C4.87728 21.623 3.10339 24.2457 3.32679 27.7187C3.35939 28.2288 3.76151 28.6406 4.2717 28.6744C6.54007 28.8242 8.45162 28.1268 9.75577 26.8227C10.4525 26.1259 10.9694 25.251 11.2833 24.2451L7.75849 20.7209Z" fill="#F9B938"/>
<path d="M10.7248 25.5378L9.37419 24.1872C8.67764 23.4913 7.73477 23.0982 6.75019 23.0931C5.51306 23.0871 4.30611 23.6848 3.64861 24.8562C4.26445 22.8305 5.74008 21.3543 7.7603 20.7203L11.2863 24.2463C11.1422 24.6943 10.9541 25.1269 10.7248 25.5378Z" fill="#E5A320"/>
<path d="M8.61343 21.5758C7.12754 22.0407 6.21282 23.3932 6.32754 25.1846C6.33501 25.3121 6.38865 25.4324 6.47844 25.5232C6.56823 25.614 6.68801 25.669 6.81539 25.6779C7.9849 25.7546 8.97086 25.3953 9.64346 24.7227C10.0103 24.3502 10.2808 23.8939 10.4314 23.3932L8.61343 21.5758Z" fill="#F7F363"/>
<path d="M9.76905 24.5814L9.37418 24.1872C8.67764 23.4913 7.73476 23.0982 6.75018 23.0931C7.14505 22.3644 7.79652 21.8319 8.61524 21.5753L10.4326 23.3926C10.2985 23.8319 10.072 24.2374 9.76845 24.582L9.76905 24.5814Z" fill="#F7E839"/>
<path d="M7.41977 15.61C7.1209 15.5979 6.816 15.6039 6.51713 15.6281C5.3794 15.7038 4.26624 15.9939 3.23622 16.483C2.77554 16.704 2.24362 16.6026 1.87894 16.2379L1.8729 16.2319C1.6876 16.0504 1.56552 15.8142 1.52464 15.5581C1.48377 15.302 1.52627 15.0395 1.64588 14.8094C2.19789 13.6836 2.93325 12.6575 3.82188 11.773C5.68627 9.91383 8.12629 8.74224 10.7429 8.44981C11.1493 8.41359 11.5496 8.384 11.9565 8.384C10.0136 10.4223 8.46551 12.867 7.41977 15.61ZM17.2039 30.3674C16.9734 30.4857 16.7112 30.5274 16.4554 30.4865C16.1996 30.4455 15.9635 30.3241 15.7814 30.1398L15.7694 30.1277C15.5934 29.9546 15.4753 29.7312 15.4314 29.4883C15.3875 29.2453 15.4199 28.9948 15.5242 28.771C16.0136 27.7393 16.3017 26.6237 16.3731 25.4841C16.4033 25.1792 16.4094 24.8743 16.3973 24.5633C19.1046 23.5417 21.5553 22.0112 23.6172 20.0453C23.6112 20.4577 23.5931 20.87 23.5393 21.2703C23.3304 23.3202 22.5769 25.3048 21.286 26.9899C20.1745 28.4365 18.7997 29.5722 17.2039 30.3674Z" fill="#FC6559"/>
<path d="M11.9559 8.384C10.0136 10.4223 8.46612 12.867 7.41978 15.61C7.20267 15.6 6.98519 15.602 6.76831 15.616C6.68438 15.616 6.59502 15.622 6.51714 15.6281C6.78404 14.8904 7.08875 14.1669 7.43004 13.4605C8.13102 12.0097 6.66506 10.4942 5.20815 11.1813C4.46008 11.5339 3.77721 11.9257 3.30144 12.3405C3.46325 12.1437 3.64257 11.9523 3.82189 11.773C5.68628 9.91383 8.12629 8.74224 10.7429 8.44981C11.1493 8.41359 11.549 8.384 11.9559 8.384ZM19.6661 28.7173C19.84 28.5205 20.0072 28.317 20.1745 28.1014C20.4613 27.7271 20.733 27.229 20.9823 26.6796C21.6392 25.2305 20.1177 23.7899 18.6904 24.4933C17.9363 24.8645 17.1627 25.1951 16.3731 25.4835C16.3852 25.4002 16.3912 25.3108 16.3912 25.2269C16.4094 25.0059 16.4033 24.7849 16.3973 24.5633C19.1046 23.5417 21.5553 22.0112 23.6172 20.0453C23.6112 20.4577 23.5931 20.87 23.5393 21.2703C23.3304 23.3202 22.5769 25.3048 21.286 26.9899C20.8026 27.6162 20.2601 28.1946 19.6661 28.7173Z" fill="#F05543"/>
<path d="M24.0356 19.6504C21.1309 22.5552 17.4014 24.5875 13.2534 25.5197C12.5953 25.6634 11.8907 25.4484 11.4059 24.9642L7.03215 20.5887C6.54189 20.0984 6.33238 19.3872 6.48211 18.7351C8.80664 8.42565 17.6471 1.49796 28.477 1.49796C29.5946 1.50399 30.4972 2.40663 30.4912 3.51214C30.5032 9.75214 28.2023 15.4844 24.0362 19.6498L24.0356 19.6504Z" fill="#E4E3FF"/>
<path opacity="0.6" d="M8.69313 16.544C9.08935 15.2281 9.62788 13.9593 10.2992 12.7602C10.3397 12.687 10.3943 12.6226 10.4598 12.5707C10.5253 12.5187 10.6004 12.4802 10.6809 12.4574C10.7613 12.4346 10.8455 12.428 10.9285 12.4378C11.0115 12.4477 11.0918 12.4739 11.1647 12.5149C11.2375 12.5559 11.3016 12.6109 11.3531 12.6768C11.4046 12.7427 11.4426 12.8181 11.4648 12.8987C11.4871 12.9792 11.4932 13.0635 11.4827 13.1464C11.4723 13.2294 11.4456 13.3095 11.4041 13.382C10.7779 14.5002 10.2759 15.6833 9.90671 16.9105C9.8558 17.0686 9.74484 17.2005 9.59771 17.2777C9.45057 17.3548 9.27902 17.3712 9.11997 17.3231C8.96092 17.2751 8.82708 17.1665 8.74725 17.0208C8.66742 16.8751 8.64799 16.7039 8.69313 16.544ZM12.0791 11.0569C11.9683 10.9458 11.9027 10.7976 11.8949 10.6409C11.8871 10.4842 11.9377 10.3302 12.0368 10.2086C12.2844 9.90491 12.5422 9.60906 12.8078 9.32347C12.9224 9.20059 13.081 9.1282 13.2489 9.1222C13.4168 9.1162 13.5802 9.17708 13.7032 9.29147C13.9641 9.51245 13.9743 9.93147 13.7364 10.1869C13.4889 10.4531 13.2492 10.7272 13.0192 11.0098C12.9631 11.0786 12.8932 11.1348 12.8141 11.1748C12.7349 11.2149 12.6482 11.2379 12.5596 11.2423C12.471 11.2467 12.3824 11.2325 12.2997 11.2006C12.2169 11.1687 12.1418 11.1197 12.0791 11.0569Z" fill="white"/>
<path d="M24.0356 19.6504C21.1309 22.5552 17.4014 24.5875 13.2534 25.5197C12.5953 25.6634 11.8907 25.4484 11.4059 24.9642L10.1512 23.7084C10.6355 24.1932 11.3407 24.4081 11.9982 24.2644C16.1461 23.3322 19.8756 21.2999 22.7804 18.3958C26.9464 14.2297 29.2468 8.49749 29.2353 2.2581C29.2353 2.03048 29.1991 1.81553 29.1278 1.61206C29.9285 1.88738 30.4966 2.63425 30.4906 3.51274C30.5026 9.75274 28.2017 15.485 24.0356 19.6504Z" fill="#D0D0F7"/>
<path d="M6.85524 17.3524C6.72241 17.8095 6.58777 18.2654 6.4809 18.7363C6.33177 19.3878 6.54128 20.099 7.03155 20.5893L11.4065 24.9642C11.8907 25.4484 12.5959 25.6634 13.2534 25.5197C13.7247 25.4124 14.1924 25.2904 14.656 25.1538L6.85524 17.3524Z" fill="#FC6559"/>
<path d="M14.6578 25.155C14.1917 25.2866 13.7316 25.4122 13.2534 25.5197C12.5953 25.6634 11.8907 25.4485 11.4059 24.9642L10.1096 23.6673C10.5932 24.151 11.299 24.3665 11.9559 24.2228C12.4275 24.1139 12.896 23.9923 13.3609 23.8581L14.6578 25.155Z" fill="#E24B40"/>
<path d="M29.475 10.5038C30.1574 8.23652 30.4996 5.88052 30.4906 3.51275C30.4966 2.40785 29.594 1.5046 28.4764 1.49857C26.0311 1.49857 23.6957 1.86928 21.5058 2.53464L29.4756 10.5045L29.475 10.5038Z" fill="#FC6559"/>
<path d="M29.4744 10.5057L28.2548 9.28664C28.9381 7.01909 29.2805 4.66258 29.2709 2.29434C29.2709 2.05525 29.2293 1.83427 29.1514 1.62476C29.5437 1.76034 29.8838 2.01529 30.1239 2.35386C30.3641 2.69244 30.4923 3.09766 30.4906 3.51276C30.4966 5.94596 30.144 8.29404 29.4744 10.5057Z" fill="#E24B40"/>
<path d="M23.8974 15.3352C21.9061 17.3265 18.6759 17.3265 16.678 15.3286C15.7219 14.372 15.1847 13.0748 15.1847 11.7223C15.1847 10.3697 15.7219 9.07252 16.678 8.11591C18.6765 6.11742 21.9067 6.11742 23.8974 8.10927C24.3724 8.58342 24.7492 9.14659 25.0064 9.76655C25.2635 10.3865 25.3958 11.0511 25.3958 11.7223C25.3958 12.3934 25.2635 13.058 25.0064 13.6779C24.7492 14.2979 24.3724 14.8611 23.8974 15.3352Z" fill="#474646"/>
<path opacity="0.3" d="M17.7805 8.58325C17.7588 8.5616 17.7421 8.53548 17.7315 8.50671C17.7209 8.47793 17.7167 8.4472 17.7192 8.41664C17.7216 8.38608 17.7307 8.35642 17.7458 8.32973C17.7609 8.30303 17.7816 8.27994 17.8065 8.26205C18.3235 7.88797 18.9179 7.63483 19.5459 7.52134C20.1739 7.40784 20.8193 7.4369 21.4346 7.60635C21.4613 7.61364 21.4864 7.62614 21.5083 7.64312C21.5303 7.6601 21.5486 7.68123 21.5624 7.70531C21.5762 7.72939 21.585 7.75595 21.5885 7.78346C21.592 7.81097 21.5901 7.83891 21.5828 7.86567C21.5755 7.89243 21.563 7.91749 21.546 7.93942C21.529 7.96135 21.5079 7.97973 21.4838 7.99349C21.4598 8.00725 21.4332 8.01614 21.4057 8.01964C21.3782 8.02314 21.3502 8.02119 21.3235 8.0139C20.7688 7.86132 20.187 7.83521 19.6209 7.93752C19.0549 8.03983 18.519 8.26793 18.0528 8.60499C18.0122 8.63418 17.9626 8.64802 17.9127 8.64404C17.8628 8.64006 17.816 8.61852 17.7805 8.58325ZM22.4362 8.51865C22.3981 8.48151 22.3754 8.43135 22.3726 8.37819C22.3699 8.32503 22.3873 8.27278 22.4214 8.2319C22.4555 8.19102 22.5037 8.16451 22.5565 8.15767C22.6093 8.15084 22.6627 8.16418 22.7061 8.19503C22.9229 8.34416 23.1257 8.51382 23.3099 8.69797C23.3926 8.78008 23.3944 8.91654 23.3123 8.99865C23.2895 9.02013 23.2622 9.0364 23.2325 9.04633C23.2027 9.05626 23.1712 9.05962 23.14 9.05618C23.1089 9.05273 23.0788 9.04257 23.0519 9.02638C23.0251 9.0102 23.0021 8.98837 22.9845 8.96242C22.8226 8.80962 22.6492 8.66953 22.4658 8.5434C22.4552 8.5361 22.4453 8.52781 22.4362 8.51865Z" fill="white"/>
<path d="M23.8919 15.3358C21.9019 17.3259 18.6741 17.3259 16.678 15.3298C16.1563 14.8095 15.7544 14.1815 15.5005 13.4898C15.2466 12.7981 15.1467 12.0593 15.2079 11.325C15.2338 12.6254 15.7655 13.8644 16.6901 14.7792C17.1637 15.2549 17.7265 15.6324 18.3463 15.8903C18.966 16.1481 19.6306 16.2811 20.3018 16.2817C20.9731 16.2822 21.6379 16.1503 22.2581 15.8935C22.8783 15.6368 23.4417 15.2601 23.9161 14.7852C24.755 13.9486 25.275 12.845 25.3863 11.6655C25.3978 12.3464 25.2713 13.0225 25.0145 13.6532C24.7577 14.2839 24.3758 14.8567 23.8919 15.3358Z" fill="#2D2C2C"/>
<path d="M22.3801 13.8113C22.1057 14.0867 21.7796 14.3051 21.4206 14.4542C21.0616 14.6032 20.6767 14.68 20.288 14.68C19.8993 14.68 19.5144 14.6032 19.1554 14.4542C18.7964 14.3051 18.4703 14.0867 18.1959 13.8113C17.928 13.5456 17.7165 13.2285 17.574 12.8791C17.4609 12.6334 17.3883 12.371 17.3591 12.1021C17.3174 11.8207 17.3289 11.5345 17.3772 11.2592C17.4726 10.6614 17.7479 10.0879 18.202 9.63322C19.3552 8.48001 21.2269 8.47397 22.3801 9.62718C22.5057 9.75277 22.6192 9.89043 22.7146 10.0341C22.8818 10.2611 23.0074 10.5177 23.0913 10.781C23.1807 11.0382 23.2344 11.3069 23.2405 11.5756C23.2668 12.0601 23.1702 12.5434 22.9597 12.9805C22.822 13.2854 22.6252 13.5662 22.3801 13.8113Z" fill="#A2A2F9"/>
<path opacity="0.3" d="M23.0913 10.781L17.3591 12.102C17.3174 11.8207 17.3289 11.5345 17.3772 11.2592L22.7146 10.0335C22.8818 10.2611 23.0074 10.5177 23.0913 10.781ZM22.9597 12.9805L18.429 14.0202C18.3485 13.9538 18.2708 13.8841 18.1959 13.8113C17.928 13.5456 17.7165 13.2285 17.574 12.8791L23.2405 11.5755C23.2668 12.0601 23.1702 12.5434 22.9597 12.9805Z" fill="white"/>
<path d="M23.1571 12.4124C23.1567 12.0298 23.0804 11.6511 22.9326 11.2982C22.7848 10.9453 22.5685 10.6253 22.2962 10.3565C21.1429 9.20333 19.2718 9.20937 18.118 10.3626C17.7339 10.7472 17.465 11.2315 17.3416 11.7609C17.3351 11.3667 17.4079 10.9752 17.5557 10.6097C17.7035 10.2442 17.9233 9.91211 18.202 9.63322C19.3552 8.48001 21.2269 8.47397 22.3801 9.62718C22.7404 9.98391 23.0016 10.4284 23.1379 10.9168C23.2741 11.4052 23.2808 11.9206 23.1571 12.4124Z" fill="#5E5EEF"/>
</g>
<defs>
<clipPath id="clip0_27_679">
<rect width="32" height="32" fill="white"/>
</clipPath>
</defs>
</svg>
