<svg width="168" height="56" viewBox="0 0 168 56" fill="none" xmlns="http://www.w3.org/2000/svg">
<g clip-path="url(#clip0_494_733)">
<mask id="mask0_494_733" style="mask-type:luminance" maskUnits="userSpaceOnUse" x="0" y="0" width="51" height="56">
<path d="M50.3596 0H0V56H50.3596V0Z" fill="white"/>
</mask>
<g mask="url(#mask0_494_733)">
<path d="M5.46 0V56C2.51222 55.5707 0 53.0709 0 49.7031V6.29689C0 4.63244 0.612889 3.18111 1.58978 2.086C2.58689 0.964444 3.96822 0.216222 5.46 0Z" fill="white"/>
<path d="M16.38 12.6171V16.2431C16.38 16.6569 16.6009 17.0411 16.9602 17.248L21.84 20.0604L46.1736 34.0838L40.9811 37.0767L21.8385 26.0447L18.116 23.8996C17.3429 23.4547 16.3785 24.0116 16.3785 24.9044V51.2587L10.9185 54.4056V4.73823C10.9185 3.34134 12.4305 2.46867 13.6407 3.16556L21.84 7.89134L47.18 22.4964C49.9738 24.1064 50.9258 27.3124 50.0391 30.0098L21.84 13.7589L18.1176 11.6138C17.3445 11.1689 16.38 11.7258 16.38 12.6187V12.6171Z" fill="white"/>
<path d="M21.84 32.3447V48.1087L35.5165 40.2267L21.84 32.3447Z" fill="white"/>
</g>
<path d="M155.242 34.696C155.797 36.7013 157.301 37.704 159.754 37.704C161.333 37.704 162.528 37.1707 163.338 36.104L166.666 38.024C165.088 40.3067 162.762 41.448 159.69 41.448C157.045 41.448 154.922 40.648 153.322 39.048C151.722 37.448 150.922 35.432 150.922 33C150.922 30.5893 151.712 28.584 153.29 26.984C154.869 25.3627 156.896 24.552 159.37 24.552C161.717 24.552 163.648 25.3627 165.162 26.984C166.698 28.6053 167.466 30.6107 167.466 33C167.466 33.5333 167.413 34.0987 167.306 34.696H155.242ZM155.178 31.496H163.338C163.104 30.408 162.613 29.5973 161.866 29.064C161.141 28.5307 160.309 28.264 159.37 28.264C158.261 28.264 157.344 28.552 156.618 29.128C155.893 29.6827 155.413 30.472 155.178 31.496Z" fill="white"/>
<path d="M143.848 41V17.64H147.976V41H143.848Z" fill="white"/>
<path d="M135.945 18.6H140.073V41H135.945V39.112C134.729 40.6693 133.001 41.448 130.761 41.448C128.606 41.448 126.761 40.6373 125.225 39.016C123.71 37.3733 122.953 35.368 122.953 33C122.953 30.632 123.71 28.6373 125.225 27.016C126.761 25.3733 128.606 24.552 130.761 24.552C133.001 24.552 134.729 25.3307 135.945 26.888V18.6ZM128.329 36.264C129.182 37.096 130.249 37.512 131.529 37.512C132.809 37.512 133.865 37.096 134.697 36.264C135.529 35.4107 135.945 34.3227 135.945 33C135.945 31.6773 135.529 30.6 134.697 29.768C133.865 28.9147 132.809 28.488 131.529 28.488C130.249 28.488 129.182 28.9147 128.329 29.768C127.497 30.6 127.081 31.6773 127.081 33C127.081 34.3227 127.497 35.4107 128.329 36.264Z" fill="white"/>
<path d="M118.449 39.016C116.806 40.6373 114.801 41.448 112.433 41.448C110.065 41.448 108.059 40.6373 106.417 39.016C104.795 37.3733 103.985 35.368 103.985 33C103.985 30.632 104.795 28.6373 106.417 27.016C108.059 25.3733 110.065 24.552 112.433 24.552C114.801 24.552 116.806 25.3733 118.449 27.016C120.091 28.6373 120.913 30.632 120.913 33C120.913 35.368 120.091 37.3733 118.449 39.016ZM109.329 36.168C110.161 37 111.195 37.416 112.433 37.416C113.67 37.416 114.705 37 115.537 36.168C116.369 35.336 116.785 34.28 116.785 33C116.785 31.72 116.369 30.664 115.537 29.832C114.705 29 113.67 28.584 112.433 28.584C111.195 28.584 110.161 29 109.329 29.832C108.518 30.664 108.113 31.72 108.113 33C108.113 34.28 108.518 35.336 109.329 36.168Z" fill="white"/>
<path d="M99.4488 39.016C97.8061 40.6373 95.8008 41.448 93.4328 41.448C91.0648 41.448 89.0595 40.6373 87.4168 39.016C85.7955 37.3733 84.9848 35.368 84.9848 33C84.9848 30.632 85.7955 28.6373 87.4168 27.016C89.0595 25.3733 91.0648 24.552 93.4328 24.552C95.8008 24.552 97.8061 25.3733 99.4488 27.016C101.091 28.6373 101.913 30.632 101.913 33C101.913 35.368 101.091 37.3733 99.4488 39.016ZM90.3288 36.168C91.1608 37 92.1955 37.416 93.4328 37.416C94.6701 37.416 95.7048 37 96.5368 36.168C97.3688 35.336 97.7848 34.28 97.7848 33C97.7848 31.72 97.3688 30.664 96.5368 29.832C95.7048 29 94.6701 28.584 93.4328 28.584C92.1955 28.584 91.1608 29 90.3288 29.832C89.5181 30.664 89.1128 31.72 89.1128 33C89.1128 34.28 89.5181 35.336 90.3288 36.168Z" fill="white"/>
<path d="M86.4498 18.6V22.824H80.4018V41H75.9858V22.824H69.9698V18.6H86.4498Z" fill="white"/>
</g>
<defs>
<clipPath id="clip0_494_733">
<rect width="168" height="56" fill="white"/>
</clipPath>
</defs>
</svg>
