<svg xmlns="http://www.w3.org/2000/svg" enable-background="new 0 0 1000 1000" viewBox="0 0 1000 1000" id="christmas-decoration"><g opacity=".54"><path fill="none" stroke="#9284ce" stroke-linecap="round" stroke-linejoin="round" stroke-miterlimit="10" stroke-width="6" d="M669.161 729.583h11.991M675.156 723.588v11.991"></path></g><circle cx="206.857" cy="449.03" r="13.229" fill="#fff"></circle><circle cx="232.254" cy="433.473" r="7.407" fill="#fff"></circle><circle cx="556.287" cy="379.344" r="8.676" fill="none" stroke="#ff6f6c" stroke-linecap="round" stroke-linejoin="round" stroke-miterlimit="10" stroke-width="3.638"></circle><circle cx="109.67" cy="550.643" r="3.842" fill="none" stroke="#ff6f6c" stroke-linecap="round" stroke-linejoin="round" stroke-miterlimit="10" stroke-width="3.638"></circle><circle cx="185.004" cy="698.233" r="4.906" fill="#9551bc" opacity=".5"></circle><circle cx="901.267" cy="477.746" r="7.254" fill="none" stroke="#dba877" stroke-linecap="round" stroke-linejoin="round" stroke-miterlimit="10" stroke-width="6"></circle><path fill="none" stroke="#ff6f6c" stroke-linecap="round" stroke-linejoin="round" stroke-miterlimit="10" stroke-width="3.638" d="M391.402 323.289h9.173M395.989 318.702v9.173"></path><g opacity=".24"><path fill="none" stroke="#34323a" stroke-linecap="round" stroke-linejoin="round" stroke-miterlimit="10" stroke-width="9.326" d="M377.207 889.429h25.328M389.871 876.765v25.329"></path></g><g opacity=".07"><path fill="none" stroke="#c1272d" stroke-linecap="round" stroke-linejoin="round" stroke-miterlimit="10" stroke-width="10" d="M792.036 771.14h15.486M799.779 763.397v15.486"></path></g><path fill="none" stroke="#e0a769" stroke-linecap="round" stroke-linejoin="round" stroke-miterlimit="10" stroke-width="6" d="M699.12 795.125v10.143M699.12 834.408v10.142M723.833 819.838H713.69M684.55 819.838h-10.143M716.595 802.363l-7.172 7.172M688.818 830.14l-7.172 7.172M716.595 837.312l-7.172-7.172M688.818 809.535l-7.172-7.172"></path><g opacity=".57"><path fill="none" stroke="#e24d59" stroke-linecap="square" stroke-miterlimit="10" stroke-width="4" d="M603.425 282.236v8.539M603.425 315.305v8.538M624.228 303.04h-8.538M591.16 303.04h-8.538M618.135 288.33l-6.037 6.037M594.752 311.713l-6.037 6.037M618.135 317.75l-6.037-6.037M594.752 294.367l-6.037-6.037"></path></g><path fill="none" stroke="#ff6f6c" stroke-linecap="round" stroke-linejoin="round" stroke-miterlimit="10" stroke-width="3.638" d="M244.952 771.14v6.149M244.952 794.956v6.148M259.934 786.122h-6.149M236.119 786.122h-6.149M255.546 775.528l-4.348 4.348M238.706 792.368l-4.348 4.348M255.546 796.716l-4.348-4.348M238.706 779.876l-4.348-4.348"></path><path fill="none" stroke="#ae8dce" stroke-linecap="round" stroke-linejoin="round" stroke-miterlimit="10" stroke-width="3.105" d="M174.322 331.858v5.248M174.322 352.186v5.248M187.111 344.646h-5.249M166.783 344.646h-5.249M183.365 335.603l-3.711 3.711M168.991 349.977l-3.711 3.711M183.365 353.688l-3.711-3.711M168.991 339.314l-3.711-3.711M847.694 266.792v5.249M847.694 287.12v5.249M860.482 279.58h-5.248M840.154 279.58h-5.248M856.737 270.538l-3.712 3.711M842.363 284.912l-3.712 3.711M856.737 288.623l-3.712-3.711M842.363 274.249l-3.712-3.711"></path><path fill="#9551bc" d="M751.293 361.964v-1.172h-59.841v1.671c0 23.817-13.728 45.311-35.056 55.912-49.383 24.546-82.916 76.197-81.126 135.488 2.36 78.204 66.809 141.093 145.047 141.645 81.212.573 147.227-65.088 147.227-146.167 0-57.259-32.925-106.826-80.874-130.806-21.53-10.767-35.377-32.499-35.377-56.571z"></path><path fill="#7535a3" d="M575.621 538.381a148.464 148.464 0 0 0-.351 15.483c2.151 71.287 55.897 129.838 124.646 140.058-11.256-69.534-59.149-127.54-124.295-155.541z" opacity=".7"></path><path fill="#7535a3" d="M786.669 418.536c-21.529-10.767-35.376-32.5-35.376-56.572v-1.172l-9.786-4.554v7.713c0 19.38 8.733 37.6 23.473 50.182 31.404 26.805 51.321 66.667 51.321 111.193 0 81.08-66.014 146.741-147.227 146.167a145.147 145.147 0 0 1-33.881-4.251c23.965 17.576 53.411 28.043 85.123 28.267 81.212.573 147.227-65.088 147.227-146.167 0-57.259-32.924-106.826-80.874-130.806z"></path><path fill="#9a6ec4" d="M785.515 420.075c-21.227-10.616-34.879-32.044-34.879-55.777v-1.155h-59.001v1.648c0 23.482-13.535 44.675-34.563 55.127-48.689 24.201-81.751 75.127-79.987 133.585 2.327 77.106 65.871 139.111 143.01 139.656 80.072.565 145.159-64.173 145.159-144.114 0-56.456-32.463-105.326-79.739-128.97zm-64.59 257.391c-70.314 0-127.314-57-127.314-127.314s57.001-127.314 127.314-127.314 127.315 57 127.315 127.314-57.001 127.314-127.315 127.314z" opacity=".5"></path><path fill="#9551bc" d="M686.572 382.301h70.715v12.627h-70.715z"></path><defs><filter id="a" width="355.101" height="122.181" x="545.601" y="480.1" filterUnits="userSpaceOnUse"><feColorMatrix values="1 0 0 0 0 0 1 0 0 0 0 0 1 0 0 0 0 0 1 0"></feColorMatrix></filter></defs><mask id="b" width="355.101" height="122.181" x="545.601" y="480.1" maskUnits="userSpaceOnUse"><g filter="url(#a)"><path fill="#fff" d="M751.293 361.964v-1.172h-59.841v1.671c0 23.817-13.728 45.311-35.056 55.912-49.383 24.546-82.916 76.197-81.126 135.488 2.36 78.204 66.809 141.093 145.047 141.645 81.212.573 147.227-65.088 147.227-146.167 0-57.259-32.925-106.826-80.874-130.806-21.53-10.767-35.377-32.499-35.377-56.571z"></path></g></mask><g mask="url(#b)"><path fill="#ffd16c" d="m723.422 483.1 16.853 41.028 44.227 3.35-33.812 28.706 10.482 43.097-37.75-23.286-37.749 23.286 10.482-43.097-33.813-28.706 44.228-3.35z"></path><path fill="#fbb049" d="m784.502 527.478-44.228-3.349-16.852-41.029-1.305 3.178c9.555 13.274 15.201 29.55 15.201 47.154a80.414 80.414 0 0 1-12.623 43.347l36.477 22.502-10.482-43.098 33.812-28.705z"></path><path fill="none" stroke="#34323a" stroke-linecap="round" stroke-linejoin="round" stroke-miterlimit="10" stroke-width="6" d="m723.422 483.1 16.853 41.028 44.227 3.35-33.812 28.706 10.482 43.097-37.75-23.286-37.749 23.286 10.482-43.097-33.813-28.706 44.228-3.35z"></path><path fill="#ffd16c" d="m597.562 497.394 13.508 32.887 35.453 2.685-27.104 23.01 8.402 34.547-30.259-18.666-30.26 18.666 8.402-34.547-27.103-23.01 35.452-2.685z"></path><path fill="#f9bb78" d="m646.523 532.966-35.452-2.685-13.509-32.888-1.046 2.548c7.659 10.64 12.185 23.687 12.185 37.798a64.45 64.45 0 0 1-10.119 34.747l29.24 18.037-8.402-34.547 27.103-23.01z" opacity=".6"></path><path fill="none" stroke="#34323a" stroke-linecap="round" stroke-linejoin="round" stroke-miterlimit="10" stroke-width="6" d="m597.562 497.394 13.508 32.887 35.453 2.685-27.104 23.01 8.402 34.547-30.259-18.666-30.26 18.666 8.402-34.547-27.103-23.01 35.452-2.685z"></path><path fill="#f9bb78" d="m848.74 497.394 13.509 32.887 35.452 2.685-27.103 23.01L879 590.523l-30.26-18.666-30.259 18.666 8.402-34.547-27.104-23.01 35.453-2.685z"></path><path fill="#ffd16c" d="m848.74 497.394 13.509 32.887 35.452 2.685-27.103 23.01L879 590.523l-30.26-18.666-30.259 18.666 8.402-34.547-27.104-23.01 35.453-2.685z"></path><path fill="#fbb049" d="m897.701 532.966-35.452-2.685-13.509-32.888-1.046 2.548c7.659 10.64 12.185 23.687 12.185 37.798a64.45 64.45 0 0 1-10.119 34.747L879 590.523l-8.402-34.547 27.103-23.01z"></path><path fill="none" stroke="#34323a" stroke-linecap="round" stroke-linejoin="round" stroke-miterlimit="10" stroke-width="6" d="m848.74 497.394 13.509 32.887 35.452 2.685-27.103 23.01L879 590.523l-30.26-18.666-30.259 18.666 8.402-34.547-27.104-23.01 35.453-2.685z"></path></g><path fill="none" stroke="#fff" stroke-linecap="round" stroke-linejoin="round" stroke-miterlimit="10" stroke-width="12" d="M662.342 457.743c3.212-2.695 6.941-4.944 10.616-6.771 1.062-.528 2.129-1.084 3.176-1.578M625.528 497.67a109.757 109.757 0 0 1 20.125-26.634"></path><path fill="none" stroke="#34323a" stroke-linecap="round" stroke-linejoin="round" stroke-miterlimit="10" stroke-width="12" d="M751.293 361.964v-1.172h-59.841v1.671c0 23.817-13.728 45.311-35.056 55.912-49.383 24.546-82.916 76.197-81.126 135.488 2.36 78.204 66.809 141.093 145.047 141.645 81.212.573 147.227-65.088 147.227-146.167 0-57.259-32.925-106.826-80.874-130.806-21.53-10.767-35.377-32.499-35.377-56.571z"></path><circle cx="720.493" cy="303.04" r="19.541" fill="none" stroke="#34323a" stroke-linecap="round" stroke-linejoin="round" stroke-miterlimit="10" stroke-width="6"></circle><path fill="#34323a" d="M720.255 291.801a2 2 0 0 1-2-2V0h4v289.801a2 2 0 0 1-2 2z"></path><path fill="#b27960" d="M767.124 378.71h-91.968v-36.947c0-13.034 10.566-23.601 23.601-23.601h44.767c13.034 0 23.601 10.566 23.601 23.601v36.947z"></path><path fill="#e8b99c" d="M678.077 323.29h84.355v10.121h-84.355z"></path><path fill="none" stroke="#34323a" stroke-linecap="round" stroke-linejoin="round" stroke-miterlimit="10" stroke-width="12" d="M767.124 378.71h-91.968v-36.947c0-13.034 10.566-23.601 23.601-23.601h44.767c13.034 0 23.601 10.566 23.601 23.601v36.947z"></path><path fill="none" stroke="#34323a" stroke-linecap="round" stroke-linejoin="round" stroke-miterlimit="10" stroke-width="14" d="M699.12 355.466v20.522M722.136 355.466v20.522M745.151 355.466v20.522"></path><path fill="#f7cb74" d="m272.687 321.961 40.751 82.57a22 22 0 0 0 16.565 12.035l91.122 13.241c7.946 1.155 11.119 10.92 5.369 16.525l-65.936 64.272a22 22 0 0 0-6.327 19.473l15.565 90.754c1.357 7.914-6.949 13.949-14.057 10.213l-81.502-42.848a21.997 21.997 0 0 0-20.475 0l-81.502 42.848c-7.107 3.737-15.414-2.299-14.057-10.213l15.565-90.754a22 22 0 0 0-6.327-19.473l-65.936-64.272c-5.75-5.605-2.577-15.37 5.369-16.525l91.122-13.241a22 22 0 0 0 16.565-12.035l40.751-82.57c3.553-7.201 13.821-7.201 17.375 0z"></path><path fill="#f7cb74" d="m272.687 321.961 40.751 82.57a22 22 0 0 0 16.565 12.035l91.122 13.241c7.946 1.155 11.119 10.92 5.369 16.525l-65.936 64.272a22 22 0 0 0-6.327 19.473l15.565 90.754c1.357 7.914-6.949 13.949-14.057 10.213l-81.502-42.848a21.997 21.997 0 0 0-20.475 0l-81.502 42.848c-7.107 3.737-15.414-2.299-14.057-10.213l15.565-90.754a22 22 0 0 0-6.327-19.473l-65.936-64.272c-5.75-5.605-2.577-15.37 5.369-16.525l91.122-13.241a22 22 0 0 0 16.565-12.035l40.751-82.57c3.553-7.201 13.821-7.201 17.375 0z"></path><path fill="#ffebcf" d="M426.493 446.331c5.75-5.605 2.577-15.37-5.369-16.525l-91.122-13.241a22 22 0 0 1-16.565-12.035l-40.751-82.57c-3.554-7.201-13.821-7.201-17.375 0l-40.751 82.57a22 22 0 0 1-16.565 12.035l-91.122 13.241c-7.946 1.155-11.119 10.92-5.369 16.525l65.936 64.272a22 22 0 0 1 6.327 19.473l-15.565 90.754c-1.357 7.914 6.949 13.949 14.057 10.213l81.502-42.848a21.997 21.997 0 0 1 20.475 0l81.502 42.848c7.107 3.737 15.414-2.299 14.057-10.213l-15.565-90.754a22 22 0 0 1 6.327-19.473l65.936-64.272zm-88.033 86.45 13.403 78.148-70.182-36.897a38.154 38.154 0 0 0-17.683-4.365c-6.136 0-12.25 1.51-17.682 4.365l-70.182 36.897 13.403-78.148a37.994 37.994 0 0 0-10.929-33.636l-56.777-55.344 78.465-11.402a37.991 37.991 0 0 0 28.611-20.788l35.091-71.102 35.091 71.102a37.996 37.996 0 0 0 28.611 20.788l78.466 11.402-56.778 55.345a37.993 37.993 0 0 0-10.928 33.635zm-58.31-185.944h-32.397v-9.562h32.397v9.562z" opacity=".4"></path><g opacity=".6"><path fill="#f7cb74" d="M160.293 628.655c2.747 3.277 7.584 4.692 11.967 2.388l16.092-8.46a156.61 156.61 0 0 1-28.059 6.072z"></path><path fill="#f2b24e" d="M426.493 446.331c5.75-5.605 2.577-15.37-5.369-16.525l-91.122-13.241a22 22 0 0 1-16.565-12.035l-.243-.492a220.59 220.59 0 0 1 2.098 30.388c0 66.916-29.96 125.965-75.631 161.181l14.1-7.413a21.997 21.997 0 0 1 20.475 0l81.502 42.848c7.107 3.737 15.414-2.299 14.057-10.213l-15.565-90.754a22 22 0 0 1 6.327-19.473l65.936-64.271z" opacity=".7"></path></g><path fill="#d87819" d="m311.13 607.591 44.608 23.452c7.107 3.737 15.414-2.299 14.057-10.213l-10.357-60.389c-18.635 13.135-34.964 29.068-48.308 47.15z" opacity=".6"></path><path fill="#34323a" d="M268 317.014 263.382 490 260 316.986a4 4 0 1 1 8 .028z"></path><path fill="#34323a" d="m100.698 432.213 163.802 58.15-166.305-50.551a4.001 4.001 0 1 1 2.503-7.599zM430.656 441.003l-163.575 48.522 161.12-56.136a4.001 4.001 0 1 1 2.455 7.614zM362.858 632.557 264.5 491.539 369.311 627.83a4.001 4.001 0 1 1-6.453 4.727zM158.682 627.835l105.127-137.247-98.665 141.964a4 4 0 1 1-6.462-4.717z"></path><path fill="#fff" d="m264.92 434.999 14.214 28.802a7.071 7.071 0 0 0 5.322 3.867l31.784 4.619a1.027 1.027 0 0 1 .569 1.752l-22.999 22.419a7.07 7.07 0 0 0-2.033 6.257l5.429 31.656a1.027 1.027 0 0 1-1.49 1.083l-28.429-14.946a7.067 7.067 0 0 0-6.579 0l-28.429 14.946a1.027 1.027 0 0 1-1.49-1.083l5.429-31.656a7.07 7.07 0 0 0-2.033-6.257l-22.999-22.419a1.027 1.027 0 0 1 .569-1.752l31.784-4.619a7.07 7.07 0 0 0 5.322-3.867l14.214-28.802c.38-.763 1.468-.763 1.845 0z"></path><path fill="none" stroke="#34323a" stroke-linecap="round" stroke-linejoin="round" stroke-miterlimit="10" stroke-width="9" d="m264.92 434.999 14.214 28.802a7.071 7.071 0 0 0 5.322 3.867l31.784 4.619a1.027 1.027 0 0 1 .569 1.752l-22.999 22.419a7.07 7.07 0 0 0-2.033 6.257l5.429 31.656a1.027 1.027 0 0 1-1.49 1.083l-28.429-14.946a7.067 7.067 0 0 0-6.579 0l-28.429 14.946a1.027 1.027 0 0 1-1.49-1.083l5.429-31.656a7.07 7.07 0 0 0-2.033-6.257l-22.999-22.419a1.027 1.027 0 0 1 .569-1.752l31.784-4.619a7.07 7.07 0 0 0 5.322-3.867l14.214-28.802c.38-.763 1.468-.763 1.845 0z"></path><path fill="none" stroke="#34323a" stroke-linecap="round" stroke-linejoin="round" stroke-miterlimit="10" stroke-width="12" d="m272.687 321.961 40.751 82.57a22 22 0 0 0 16.565 12.035l91.122 13.241c7.946 1.155 11.119 10.92 5.369 16.525l-65.936 64.272a22 22 0 0 0-6.327 19.473l15.565 90.754c1.357 7.914-6.949 13.949-14.057 10.213l-81.502-42.848a21.997 21.997 0 0 0-20.475 0l-81.502 42.848c-7.107 3.737-15.414-2.299-14.057-10.213l15.565-90.754a22 22 0 0 0-6.327-19.473l-65.936-64.272c-5.75-5.605-2.577-15.37 5.369-16.525l91.122-13.241a22 22 0 0 0 16.565-12.035l40.751-82.57c3.553-7.201 13.821-7.201 17.375 0z"></path><path fill="#b27960" d="M296.072 334.365h-64.143v-42.334c0-6.876 5.574-12.451 12.451-12.451h39.242c6.876 0 12.451 5.574 12.451 12.451v42.334z"></path><path fill="#b27960" d="M296 286.5a6.5 6.5 0 0 0-6.5-6.5h-51a6.5 6.5 0 1 0 0 13h51a6.5 6.5 0 0 0 6.5-6.5z"></path><path fill="none" stroke="#34323a" stroke-linecap="round" stroke-linejoin="round" stroke-miterlimit="10" stroke-width="12" d="M296.072 334.365h-64.143v-42.334c0-6.876 5.574-12.451 12.451-12.451h39.242c6.876 0 12.451 5.574 12.451 12.451v42.334z"></path><path fill="none" stroke="#34323a" stroke-linecap="round" stroke-linejoin="round" stroke-miterlimit="10" stroke-width="14" d="M253 312v22M275 312v22"></path><circle cx="264.493" cy="261.04" r="19.541" fill="none" stroke="#34323a" stroke-linecap="round" stroke-linejoin="round" stroke-miterlimit="10" stroke-width="6"></circle><path fill="#34323a" d="M263.691 246.274a2 2 0 0 1-2-2V0h4v244.274a2 2 0 0 1-2 2z"></path><circle cx="489.493" cy="429.04" r="19.541" fill="none" stroke="#34323a" stroke-linecap="round" stroke-linejoin="round" stroke-miterlimit="10" stroke-width="6"></circle><path fill="#34323a" d="M489.255 417.801a2 2 0 0 1-2-2V0h4v415.801a2 2 0 0 1-2 2z"></path><path fill="#e24d59" d="M520.266 479.206v-1.197h-61.112v1.707c0 24.323-14.02 46.274-35.8 57.1-50.432 25.067-84.676 77.815-82.849 138.365 2.41 79.865 68.228 144.089 148.127 144.653 82.937.586 150.353-66.47 150.353-149.271 0-58.475-33.624-109.094-82.591-133.584-21.987-10.996-36.128-33.19-36.128-57.773z"></path><path fill="#d83742" d="M556.394 536.979c-21.986-10.996-36.127-33.19-36.127-57.773v-1.197l-9.994-4.651v7.877c0 19.791 8.918 38.399 23.972 51.247 32.071 27.374 52.411 68.083 52.411 113.555 0 82.801-67.416 149.857-150.353 149.271a148.26 148.26 0 0 1-34.601-4.341c24.474 17.949 54.545 28.638 86.931 28.867 82.937.586 150.353-66.47 150.353-149.271-.001-58.475-33.624-109.094-82.592-133.584z"></path><path fill="#ef818e" d="M556.394 536.979c-21.986-10.996-36.127-33.19-36.127-57.773v-1.197h-61.112v1.707c0 24.323-14.02 46.274-35.8 57.1-50.432 25.067-84.676 77.815-82.849 138.365 2.41 79.865 68.228 144.089 148.127 144.653 82.937.586 150.353-66.47 150.353-149.271-.001-58.475-33.624-109.094-82.592-133.584zm-66.901 266.6c-72.83 0-131.87-59.04-131.87-131.87s59.04-131.87 131.87-131.87 131.87 59.04 131.87 131.87-59.041 131.87-131.87 131.87z" opacity=".4"></path><path fill="#e24d59" d="M448.329 507.578h81.853v10.53h-81.853z"></path><path fill="none" stroke="#fff" stroke-linecap="round" stroke-linejoin="round" stroke-miterlimit="10" stroke-width="12" d="M429.427 577.018c3.28-2.752 7.088-5.049 10.842-6.914 1.085-.539 2.174-1.107 3.244-1.612M391.83 617.794a112.136 112.136 0 0 1 20.552-27.2"></path><path fill="none" stroke="#34323a" stroke-linecap="round" stroke-linejoin="round" stroke-miterlimit="10" stroke-width="12" d="M520.266 479.206v-1.197h-61.112v1.707c0 24.323-14.02 46.274-35.8 57.1-50.432 25.067-84.676 77.815-82.849 138.365 2.41 79.865 68.228 144.089 148.127 144.653 82.937.586 150.353-66.47 150.353-149.271 0-58.475-33.624-109.094-82.591-133.584-21.987-10.996-36.128-33.19-36.128-57.773z"></path><path fill="none" stroke="#34323a" stroke-linecap="round" stroke-linejoin="round" stroke-miterlimit="10" stroke-width="12" d="M520.266 479.206v-1.197h-61.112v1.707c0 24.323-14.02 46.274-35.8 57.1-50.432 25.067-84.676 77.815-82.849 138.365 2.41 79.865 68.228 144.089 148.127 144.653 82.937.586 150.353-66.47 150.353-149.271 0-58.475-33.624-109.094-82.591-133.584-21.987-10.996-36.128-33.19-36.128-57.773z"></path><path fill="#f9bb78" d="M340.505 675.181c.147 4.871.534 9.684 1.141 14.428H637.78a150.756 150.756 0 0 0 1.204-19.046c0-12.076-1.455-23.808-4.162-35.053H344.593a149.925 149.925 0 0 0-4.088 39.671z"></path><path fill="#f6a258" d="M340.719 679.7a149.566 149.566 0 0 1 3.874-26.169h290.231a149.648 149.648 0 0 1 3.888 26.003c.176-2.969.274-5.958.274-8.971 0-12.076-1.455-23.808-4.162-35.053H344.593a149.933 149.933 0 0 0-4.088 39.671c.046 1.513.123 3.018.214 4.519z"></path><path fill="none" stroke="#34323a" stroke-linecap="round" stroke-linejoin="round" stroke-miterlimit="10" stroke-width="12" d="M340.505 675.181c.147 4.871.534 9.684 1.141 14.428H637.78a150.756 150.756 0 0 0 1.204-19.046c0-12.076-1.455-23.808-4.162-35.053H344.593a149.925 149.925 0 0 0-4.088 39.671z"></path><circle cx="395.616" cy="662.559" r="16.77" fill="#fff"></circle><circle cx="459.296" cy="662.559" r="16.77" fill="#fff"></circle><circle cx="522.976" cy="662.559" r="16.77" fill="#fff"></circle><circle cx="586.655" cy="662.559" r="16.77" fill="#fff"></circle><circle cx="395.616" cy="662.559" r="16.77" fill="none" stroke="#34323a" stroke-linecap="round" stroke-linejoin="round" stroke-miterlimit="10" stroke-width="10"></circle><circle cx="459.296" cy="662.559" r="16.77" fill="none" stroke="#34323a" stroke-linecap="round" stroke-linejoin="round" stroke-miterlimit="10" stroke-width="10"></circle><circle cx="522.976" cy="662.559" r="16.77" fill="none" stroke="#34323a" stroke-linecap="round" stroke-linejoin="round" stroke-miterlimit="10" stroke-width="10"></circle><circle cx="586.655" cy="662.559" r="16.77" fill="none" stroke="#34323a" stroke-linecap="round" stroke-linejoin="round" stroke-miterlimit="10" stroke-width="10"></circle><path fill="#b27960" d="M536.124 504.71h-91.968v-36.947c0-13.034 10.566-23.601 23.601-23.601h44.767c13.034 0 23.601 10.566 23.601 23.601v36.947z"></path><path fill="#e8b99c" d="M447.077 448.29h84.355v10.121h-84.355z"></path><path fill="none" stroke="#34323a" stroke-linecap="round" stroke-linejoin="round" stroke-miterlimit="10" stroke-width="12" d="M536.124 504.71h-91.968v-36.947c0-13.034 10.566-23.601 23.601-23.601h44.767c13.034 0 23.601 10.566 23.601 23.601v36.947z"></path><path fill="none" stroke="#34323a" stroke-linecap="round" stroke-linejoin="round" stroke-miterlimit="10" stroke-width="14" d="M468.12 481.466v20.522M491.136 481.466v20.522M514.151 481.466v20.522"></path></svg>