<svg width="48" height="48" viewBox="0 0 48 48" fill="none" xmlns="http://www.w3.org/2000/svg">
<path d="M43.3326 23.1613C43.3326 23.1613 44.7625 21.0771 42.6771 19.6484C40.5941 18.2198 39.1655 20.304 39.1655 20.304L32.5326 29.9773C32.3053 29.5958 32.0539 29.2194 31.776 28.848L40.9819 15.4219C40.9819 15.4219 42.4105 13.3389 40.3263 11.9103C38.2434 10.4804 36.8147 12.5646 36.8147 12.5646L28.1545 25.1924C27.8324 24.9284 27.504 24.6657 27.163 24.4067L37.2013 9.76674C37.2013 9.76674 38.6299 7.68379 36.547 6.25516C34.464 4.82526 33.0354 6.90947 33.0354 6.90947L22.9958 21.5482C22.6269 21.3208 22.2619 21.1251 21.8968 20.9192L31.2783 7.23663C31.2783 7.23663 32.7069 5.15368 30.6227 3.72505C28.5398 2.29515 27.1112 4.37937 27.1112 4.37937L17.1903 18.8463L16.3958 20.0059L15.6821 21.048C21.9322 25.3339 22.5272 33.4004 18.9562 38.6084C18.2413 39.6505 17.2004 38.9368 17.2004 38.9368C21.4863 32.6855 20.1764 25.6611 13.9251 21.3752L15.7718 12.1516C15.7718 12.1516 16.4602 9.72 14.0299 9.03158C11.5996 8.34316 10.9112 10.7735 10.9112 10.7735L8.78274 17.0943C7.93895 19.6004 7.04084 22.0977 5.85221 24.4585C2.496 31.128 4.50063 39.4181 10.8303 43.7583C17.7335 48.4914 27.1693 46.7331 31.9036 39.8299C32.1537 39.4636 32.3634 39.1061 32.563 38.7486L32.6185 38.7878L43.3326 23.1613Z" fill="#FFB800"/>
<path d="M3.84252 10.1053H1.31621C1.31888 7.77511 2.24573 5.54113 3.89342 3.89345C5.54111 2.24576 7.77508 1.31891 10.1053 1.31624V3.84255C8.4449 3.84456 6.85311 4.50502 5.67905 5.67908C4.505 6.85314 3.84453 8.44492 3.84252 10.1053" fill="#77B255"/>
<path d="M6.31579 16.4211H3.78947C3.78947 9.45603 9.456 3.7895 16.4211 3.7895V6.31582C10.8493 6.31582 6.31579 10.8493 6.31579 16.4211Z" fill="#77B255"/>
<path d="M37.8947 46.7368V44.2105C41.6842 44.2105 44.2105 41.6842 44.2105 37.8947H46.7368C46.7368 42.9474 42.9474 46.7368 37.8947 46.7368Z" fill="#77B255"/>
<path d="M31.579 44.2636V41.7373C36.6316 41.7373 41.7373 36.6316 41.7373 31.5789H44.2636C44.2636 39.1579 39.1579 44.2636 31.579 44.2636Z" fill="#77B255"/>
</svg>
